<svg version="1.1" id="svg88" sodipodi:docname="DotdashMeredith_Logo_WHT.svg" inkscape:version="1.1.1 (3bf5ae0d25, 2021-09-20)" xmlns:inkscape="http://www.inkscape.org/namespaces/inkscape" xmlns:sodipodi="http://sodipodi.sourceforge.net/DTD/sodipodi-0.dtd" xmlns="http://www.w3.org/2000/svg" xmlns:svg="http://www.w3.org/2000/svg" height="122" width="250" viewBox="-10 0 260 122">
  <sodipodi:namedview id="namedview90" pagecolor="#ffffff" bordercolor="#666666" borderopacity="1.0" inkscape:pageshadow="2" inkscape:pageopacity="0.0" inkscape:pagecheckerboard="0" showgrid="false" inkscape:zoom="1.1470202" inkscape:cx="276.80419" inkscape:cy="59.719958" inkscape:window-width="1366" inkscape:window-height="715" inkscape:window-x="-8" inkscape:window-y="-8" inkscape:window-maximized="1" inkscape:current-layer="svg88"/>
  <g id="g3643" transform="scale(1.0606393)">
    <circle cx="57.192955" cy="57.192955" r="57.192955" fill="#f44b34" id="circle2" style="stroke-width:0.266001"/>
    <path d="M 75.17465,24.373706 C 72.357695,21.447691 68.458115,20.040544 63.470589,20.040544 48.19679,19.931483 42.781002,19.931483 41.373854,19.931483 l -4.766744,11.48062 h 13.53947 l -9.094587,9.858011 v 35.096222 l -0.109061,0.1064 0.109061,0.109061 v 11.156098 l -6.064832,6.607474 h 30.87212 L 79.505152,79.614213 v -0.433583 0 -43.001782 c 0,-0.109061 0.117041,-7.051697 -4.330502,-11.805142 z M 66.396604,57.192957 54.04882,70.192444 V 63.042327 L 66.396604,50.042839 Z M 54.04882,31.412103 h 4.984866 c 1.516208,0 3.575059,-0.106401 5.200327,1.518868 1.625268,1.625268 2.274312,4.224102 2.274312,8.230082 v 5.958431 L 54.160541,60.116312 Z m -8.121022,50.476422 5.524849,-5.945131 14.946617,-15.922843 v 21.878614 z" fill="#ffffff" id="path4" style="stroke-width:0.266001"/>
    <rect x="88.343224" y="134.16922" width="15.39084" height="9.8340712" transform="rotate(-45)" fill="#009ad9" id="rect6" style="stroke-width:0.266001"/>
    <polygon points="778.18,236.51 737.27,277.42 763.41,303.56 804.32,262.65 " fill="#009ad9" id="polygon8" transform="matrix(0.26600138,0,0,0.26600138,-3.1042356,-5.7190296)"/>
    <path d="m 187.69323,15.954763 a 7.6954199,7.6954199 0 1 1 10.88212,10.882116 l -5.56475,5.564749 6.95328,6.955936 5.56741,-5.564749 v 0 c 3.41811,-3.420778 8.262,-2.620113 10.88211,0 3.2931,3.295757 2.7079,8.171563 0,10.879457 l -5.57007,5.567408 6.95328,6.953277 5.56741,-5.564749 A 17.532151,17.532151 0 0 0 210.65713,21.705713 17.39383,17.39383 0 0 0 205.53129,9.0014867 c -6.58088,-6.5808742 -17.71304,-7.0809567 -24.79133,0 l -5.56741,5.5674093 6.95593,6.953276 z" fill="#009ad9" id="path10" style="stroke-width:0.266001"/>
    <polygon points="670.22,210.37 696.36,236.51 737.27,195.6 711.13,169.46 711.13,169.45 670.22,210.37 " fill="#009ad9" id="polygon12" transform="matrix(0.26600138,0,0,0.26600138,-3.1042356,-5.7190296)"/>
    <polygon points="629.31,303.56 603.16,329.7 644.07,370.62 670.22,344.47 " fill="#6ebd44" id="polygon14" transform="matrix(0.26600138,0,0,0.26600138,-3.1042356,-5.7190296)"/>
    <path d="m 217.79927,57.192957 -6.95328,6.953276 5.56741,5.567408 c 2.71056,2.710554 3.29576,7.5837 0,10.879457 -2.62277,2.622773 -7.464,3.423438 -10.88211,0 v 0 l -5.56741,-5.567409 -6.95328,6.955936 5.56475,5.564749 A 7.6957599,7.6957599 0 1 1 187.69323,98.43115 l -5.56475,-5.567409 -6.95593,6.953276 5.56741,5.567413 c 7.07829,7.08095 18.21045,6.58087 24.79133,0 a 17.40447,17.40447 0 0 0 5.12584,-12.70689 17.526831,17.526831 0 0 0 12.70955,-29.917175 z" fill="#6ebd44" id="path16" style="stroke-width:0.266001"/>
    <polygon points="696.36,236.51 670.22,262.66 711.13,303.56 737.27,277.42 " fill="#6ebd44" id="polygon18" transform="matrix(0.26600138,0,0,0.26600138,-3.1042356,-5.7190296)"/>
    <polygon points="763.41,169.46 737.27,195.6 778.18,236.51 804.32,210.37 " fill="#6ebd44" id="polygon20" transform="matrix(0.26600138,0,0,0.26600138,-3.1042356,-5.7190296)"/>
    <rect x="63.120731" y="184.60951" width="15.39084" height="9.8340712" transform="rotate(-45)" fill="#f68f1e" id="rect22" style="stroke-width:0.266001"/>
    <path d="m 162.65186,98.43115 c -2.71055,2.71055 -7.5837,3.29576 -10.87945,0 -2.62012,-2.620113 -3.42344,-7.461338 0,-10.879456 v 0 l 5.56475,-5.564749 -6.9586,-6.958596 v 0 l -5.56741,5.564749 A 7.6954199,7.6954199 0 1 1 133.92903,69.710981 l 5.56475,-5.564748 -6.93731,-6.953276 -5.58603,5.567408 c -7.08096,7.075637 -6.58088,18.207795 0,24.786009 a 17.40181,17.40181 0 0 0 12.70688,5.128506 17.526831,17.526831 0 0 0 29.91718,12.70955 l 5.56741,-5.567413 -6.95328,-6.950616 z" fill="#f68f1e" id="path24" style="stroke-width:0.266001"/>
    <polygon points="644.07,236.51 603.16,277.42 629.3,303.56 670.22,262.65 " fill="#f68f1e" id="polygon26" transform="matrix(0.26600138,0,0,0.26600138,-3.1042356,-5.7190296)"/>
    <polygon points="603.16,195.6 577.02,169.46 536.11,210.37 562.25,236.51 " fill="#f68f1e" id="polygon28" transform="matrix(0.26600138,0,0,0.26600138,-3.1042356,-5.7190296)"/>
    <polygon points="577.02,303.56 603.16,277.42 562.25,236.51 536.1,262.65 " fill="#ec174c" id="polygon30" transform="matrix(0.26600138,0,0,0.26600138,-3.1042356,-5.7190296)"/>
    <path d="m 133.93435,44.674932 a 7.6957603,7.6957603 0 0 1 10.88478,-10.882117 l 5.55943,5.564749 6.95328,-6.955936 -5.56475,-5.564749 v 0 c -3.41812,-3.418118 -2.61746,-8.246043 0,-10.882116 3.29575,-3.293097 8.17156,-2.707894 10.87945,0 l 5.57007,5.567409 6.95062,-6.950616 -5.55943,-5.5700693 a 17.529491,17.529491 0 0 0 -29.91984,12.7068863 17.41511,17.41511 0 0 0 -12.71752,5.128506 c -6.57822,6.580874 -7.0783,17.710372 0,24.791329 l 5.58603,5.564749 6.95593,-6.953277 z" fill="#ec174c" id="path32" style="stroke-width:0.266001"/>
    <rect x="103.73315" y="144.00293" width="9.8314104" height="15.38818" transform="rotate(-45)" fill="#ec174c" id="rect34" style="stroke-width:0.266001"/>
    <polygon points="629.31,169.46 603.16,195.6 644.07,236.51 670.22,210.37 " fill="#ec174c" id="polygon36" transform="matrix(0.26600138,0,0,0.26600138,-3.1042356,-5.7190296)"/>
    <rect x="103.73153" y="134.16762" width="9.8314104" height="9.8340712" transform="rotate(-45)" fill="#573357" id="rect38" style="stroke-width:0.266001"/>
    <rect x="53.279743" y="134.17439" width="9.8340712" height="9.8340712" transform="rotate(-45)" fill="#be272d" id="rect40" style="stroke-width:0.266001"/>
    <rect x="103.73345" y="184.61565" width="9.8340712" height="9.8340712" transform="rotate(-45)" fill="#008e4c" id="rect42" style="stroke-width:0.266001"/>
    <rect x="53.289181" y="184.60736" width="9.8340712" height="9.8340712" transform="rotate(-45)" fill="#7a773e" id="rect44" style="stroke-width:0.266001"/>
    <rect x="103.73475" y="159.38748" width="9.8314104" height="9.8340712" transform="rotate(-45)" fill="#443639" id="rect46" style="stroke-width:0.266001"/>
    <rect x="53.284855" y="159.38861" width="9.8340712" height="9.8340712" transform="rotate(-45)" fill="#803136" id="rect48" style="stroke-width:0.266001"/>
    <rect x="78.511673" y="134.15579" width="9.8340712" height="9.8340712" transform="rotate(-45)" fill="#593438" id="rect50" style="stroke-width:0.266001"/>
    <rect x="78.506584" y="159.39258" width="9.8340712" height="9.8340712" transform="rotate(-45)" fill="#443639" id="rect52" style="stroke-width:0.266001"/>
    <rect x="78.513588" y="184.60867" width="9.8340712" height="9.8340712" transform="rotate(-45)" fill="#2a6442" id="rect54" style="stroke-width:0.266001"/>
  </g>
</svg>