<svg xmlns="http://www.w3.org/2000/svg" xmlns:xlink="http://www.w3.org/1999/xlink" version="1.1" x="0" y="0" viewBox="16 16 480 480" style="enable-background:new 0 0 512 512;" xml:space="preserve" height="123.38552480786976" width="123.38552480786976" class="icon-icon-0" data-fill-palette-color="accent" id="icon-0"><g fill="#fff" data-fill-palette-color="accent"><g fill="#fff" data-fill-palette-color="accent"><g fill="#fff" data-fill-palette-color="accent"><path d="M336 96H176c-22.056 0-40-17.944-40-40s17.944-40 40-40h160c22.056 0 40 17.944 40 40S358.056 96 336 96zM176 36c-11.028 0-20 8.972-20 20s8.972 20 20 20h160c11.028 0 20-8.972 20-20s-8.972-20-20-20H176z" fill="#fff" data-fill-palette-color="accent"/></g><g fill="#fff" data-fill-palette-color="accent"><path d="M251 386c-13.785 0-25-11.215-25-25s11.215-25 25-25 25 11.215 25 25S264.785 386 251 386zM251 356c-2.757 0-5 2.243-5 5s2.243 5 5 5 5-2.243 5-5S253.757 356 251 356z" fill="#fff" data-fill-palette-color="accent"/></g><g fill="#fff" data-fill-palette-color="accent"><path d="M311 406c-13.785 0-25-11.215-25-25s11.215-25 25-25 25 11.215 25 25S324.785 406 311 406zM311 376c-2.757 0-5 2.243-5 5s2.243 5 5 5 5-2.243 5-5S313.757 376 311 376z" fill="#fff" data-fill-palette-color="accent"/></g><g fill="#fff" data-fill-palette-color="accent"><path d="M211 436c-13.785 0-25-11.215-25-25s11.215-25 25-25 25 11.215 25 25S224.785 436 211 436zM211 406c-2.757 0-5 2.243-5 5s2.243 5 5 5 5-2.243 5-5S213.757 406 211 406z" fill="#fff" data-fill-palette-color="accent"/></g><rect x="426" y="96" width="20" height="20" fill="#fff" data-fill-palette-color="accent"/><rect x="446" y="116" width="20" height="20" fill="#fff" data-fill-palette-color="accent"/><rect x="426" y="136" width="20" height="20" fill="#fff" data-fill-palette-color="accent"/><rect x="406" y="116" width="20" height="20" fill="#fff" data-fill-palette-color="accent"/><rect x="66" y="226" width="20" height="20" fill="#fff" data-fill-palette-color="accent"/><rect x="86" y="246" width="20" height="20" fill="#fff" data-fill-palette-color="accent"/><rect x="66" y="266" width="20" height="20" fill="#fff" data-fill-palette-color="accent"/><rect x="46" y="246" width="20" height="20" fill="#fff" data-fill-palette-color="accent"/><g fill="#fff" data-fill-palette-color="accent"><path d="M486 496H26c-5.523 0-10-4.478-10-10s4.477-10 10-10h460c5.522 0 10 4.478 10 10S491.522 496 486 496z" fill="#fff" data-fill-palette-color="accent"/></g><g fill="#fff" data-fill-palette-color="accent"><path d="M385.805 354.11c-0.451 0-0.905-0.03-1.359-0.093-37.557-5.153-66.04-18.276-88.927-28.822-19.961-9.197-35.728-16.462-51.251-16.462-7.996 0-15.729 2.007-23.643 6.134-30.048 15.669-72.013 26.251-101.927 32.369-3.113 0.64-6.345-0.243-8.704-2.374-2.359-2.129-3.566-5.254-3.25-8.416 4.928-49.372 35.08-92.899 79.257-115.087V86c0-5.523 4.477-10 10-10h110c5.522 0 10 4.477 10 10v135.358c11.219 5.631 21.61 12.673 31.038 21.031l24.317-24.318c3.908-3.905 10.238-3.904 14.143 0l42.426 42.426c3.905 3.905 3.905 10.237 0 14.143l-37.279 37.278c2.813 10.079 4.529 20.484 5.112 31.019 0.045 0.385 0.067 0.776 0.067 1.174 0 5.514-4.462 9.985-9.973 10C385.836 354.11 385.82 354.11 385.805 354.11zM244.267 288.733c19.91 0 38.312 8.479 59.622 18.298 19.953 9.193 42.234 19.46 70.666 25.066-1.026-6.772-2.604-13.434-4.72-19.914-1.169-3.58-0.228-7.512 2.435-10.175l34.44-34.44-28.283-28.284-24.133 24.133c-1.876 1.876-4.42 2.929-7.071 2.929-0.014 0-0.027 0-0.04 0-2.667-0.011-5.218-1.086-7.088-2.986-11.062-11.242-23.905-20.174-38.173-26.547-3.603-1.609-5.922-5.185-5.922-9.13V96h-90v131.682c0 3.945-2.319 7.521-5.921 9.13-36.56 16.331-62.934 49.218-71.258 87.785 26.708-6.058 58.925-15.141 82.556-27.464C222.214 291.481 232.973 288.733 244.267 288.733z" fill="#fff" data-fill-palette-color="accent"/></g><g fill="#fff" data-fill-palette-color="accent"><path d="M251 496c-79.953 0-145-65.047-145-145 0-4.72 0.25-9.616 0.743-14.554 0.435-4.358 3.656-7.927 7.947-8.804 28.659-5.862 68.697-15.913 96.687-30.51 10.838-5.651 21.597-8.399 32.891-8.399 19.908 0 38.312 8.479 59.622 18.298 22.813 10.511 48.669 22.424 83.275 27.172 4.761 0.653 8.384 4.6 8.628 9.399 0.142 2.791 0.208 5.143 0.208 7.397C396 430.953 330.953 496 251 496zM126.12 345.677c-0.08 1.8-0.12 3.577-0.12 5.323 0 68.925 56.075 125 125 125 68.357 0 124.075-55.155 124.988-123.3-33.419-5.827-59.332-17.766-80.469-27.504-19.963-9.197-35.73-16.463-51.252-16.463-7.996 0-15.729 2.007-23.643 6.134C192.988 329.278 155.27 339.387 126.12 345.677z" fill="#fff" data-fill-palette-color="accent"/></g><g fill="#fff" data-fill-palette-color="accent"><path d="M434.995 285.498c-6.678 0-12.956-2.601-17.678-7.322l-49.498-49.498c-9.746-9.748-9.746-25.608 0-35.355 4.723-4.722 11.001-7.323 17.678-7.323 6.678 0 12.956 2.601 17.678 7.322l49.498 49.498c9.746 9.747 9.746 25.607 0 35.354C447.951 282.897 441.673 285.498 434.995 285.498zM385.497 206c-0.773 0-2.261 0.19-3.536 1.465-1.948 1.949-1.948 5.121 0.001 7.071l49.498 49.498c1.273 1.274 2.762 1.465 3.535 1.465s2.262-0.19 3.535-1.465c1.949-1.949 1.949-5.122 0-7.071l-49.497-49.498C387.759 206.19 386.271 206 385.497 206z" fill="#fff" data-fill-palette-color="accent"/></g></g></g></svg>